<?xml version="1.0" encoding="utf-8"?>
<!-- Generator: Adobe Illustrator 24.0.0, SVG Export Plug-In . SVG Version: 6.00 Build 0)  -->
<svg version="1.1" id="Capa_1" xmlns="http://www.w3.org/2000/svg" xmlns:xlink="http://www.w3.org/1999/xlink" x="0px" y="0px"
	 viewBox="0 0 40 40" style="enable-background:new 0 0 40 40;" xml:space="preserve">
<style type="text/css">
	.st0{fill:#FFFFFF;}
	.st1{fill:#FFFFFF;stroke:#000000;stroke-width:3;stroke-miterlimit:10;}
</style>
<g>
	<g>
		<path class="st0" d="M8.4,34.5L8.4,34.5c-0.5,0-1-0.2-1.3-0.5c-2.9-3.2-4.4-7.3-4.4-11.6c0-3.1,0.9-6.3,2.5-9
			c0.5-0.8,1.6-1,2.4-0.6c0.8,0.5,1,1.6,0.6,2.4c-1.4,2.1-2.1,4.6-2.1,7.1c0,1.9,0.4,3.7,1.1,5.5c1.2-2.4,3.6-4.2,6.3-4.4l0,0
			c0-4.3,3.6-7.9,8-7.9c0.4-2.4,1.9-4.4,4-5.6c-1.8-0.9-3.8-1.3-5.8-1.3c-3.4,0-6.6,1.2-9.1,3.5c-0.7,0.6-1.7,0.6-2.4-0.1L4.7,8.6
			C4.2,7.9,4.2,6.8,4.9,6.1s1.8-0.7,2.4,0l2.3,2.3c3-2.1,6.5-3.2,10.2-3.2c4.3,0,8.3,1.6,11.5,4.3c0.6,0.5,0.8,1.3,0.4,2
			c-0.3,0.7-1,1.1-1.8,1h-0.2c-0.1,0-0.2,0-0.3,0c-2.4,0-4.3,2-4.3,4.3c0,0.1,0,0.2,0,0.3v0.2c0.1,0.6-0.2,1.2-0.6,1.6
			c-0.4,0.3-1,0.5-1.7,0.3c-0.5-0.2-0.9-0.3-1.3-0.3c-2.4,0-4.3,2-4.3,4.3c0,0.4,0.1,0.9,0.3,1.3c0.2,0.6,0.1,1.2-0.3,1.7
			c-0.4,0.4-1,0.7-1.7,0.5C15,27,14.7,27,14.4,27C12,27,10,29,10,31.3c0,0.3,0,0.6,0.2,1c0.2,0.6,0,1.2-0.4,1.7
			C9.3,34.3,8.9,34.5,8.4,34.5z"/>
	</g>
	<g>
		<path class="st0" d="M31.7,34.8c-1.9,0-3.2-1-4.3-2l-8.8-8.7c-0.7-0.7-0.7-1.8,0-2.4c0.7-0.7,1.8-0.7,2.4,0l8.7,8.7
			c0.9,0.8,1.4,1,1.9,1c1.2,0,2.3-1,2.3-2.3s-1-2.3-2.3-2.3c-1,0-1.7-0.8-1.7-1.7s0.8-1.7,1.7-1.7c3.2,0,5.7,2.6,5.7,5.7
			S34.8,34.8,31.7,34.8z"/>
	</g>
	<g>
		<path class="st1" d="M20.3,23.7"/>
	</g>
</g>
<path class="st0" d="M-40.3-4.6c-0.7-3-2.1-4.9-4.1-5.7c-4.1-1.6-9.4,1.9-13.7,4.7c-1.4,1-3.3,2.2-4.2,2.5c-0.9-0.6-1.9-1.4-2.9-2.4
	c-2.7-2.5-5.8-3.3-8.6-2c-3.8,1.7-6.4,6.7-6.2,11.9c0.3,6,4.1,10.8,10.7,12.9c2.4,0.7,4.8,1,7.1,1c6,0,11.5-2.2,15.9-6.4
	C-41.5,7.1-39.1,0.5-40.3-4.6z M-48.8,9.4c-5.1,5-12.3,6.6-19.5,4.6c-6.8-2.3-8.1-7.1-8.2-9.7c-0.2-3.7,1.6-7.4,4.1-8.5
	c0.4-0.3,0.9-0.4,1.4-0.4c1.1,0,2.2,0.6,3.3,1.7c1.2,1.2,2.4,2.2,3.6,2.9c0.2,0.2,0.4,0.3,0.6,0.4c8.6,4.8,15.6-2,15.7-2.1
	c0.7-0.7,0.7-1.8,0-2.5s-1.8-0.7-2.5,0C-50.8-3.7-53.8-1-58-1.4c0.6-0.4,1.1-0.7,1.8-1.1c3.2-2.1,8.1-5.3,10.5-4.4
	c0.9,0.4,1.6,1.5,2,3.3C-42.7,0.2-44.8,5.5-48.8,9.4z"/>
</svg>
