<?xml version="1.0" encoding="utf-8"?>
<!-- Generator: Adobe Illustrator 24.0.0, SVG Export Plug-In . SVG Version: 6.00 Build 0)  -->
<svg version="1.1" id="Capa_1" xmlns="http://www.w3.org/2000/svg" xmlns:xlink="http://www.w3.org/1999/xlink" x="0px" y="0px"
	 viewBox="0 0 40 40" style="enable-background:new 0 0 40 40;" xml:space="preserve">
<style type="text/css">
	.st0{fill:#FFFFFF;}
</style>
<path class="st0" d="M39.7,11.6c-0.7-3-2.1-4.9-4.1-5.7c-4.1-1.6-9.4,1.9-13.7,4.7c-1.4,1-3.3,2.2-4.2,2.5c-0.9-0.6-1.9-1.4-2.9-2.4
	C12.1,8.2,9,7.4,6.2,8.7C2.4,10.4-0.2,15.4,0,20.6c0.3,6,4.1,10.8,10.7,12.9c2.4,0.7,4.8,1,7.1,1c6,0,11.5-2.2,15.9-6.4
	C38.5,23.3,40.9,16.7,39.7,11.6z M31.2,25.6c-5.1,5-12.3,6.6-19.5,4.6c-6.8-2.3-8.1-7.1-8.2-9.7c-0.2-3.7,1.6-7.4,4.1-8.5
	C8,11.7,8.5,11.6,9,11.6c1.1,0,2.2,0.6,3.3,1.7c1.2,1.2,2.4,2.2,3.6,2.9c0.2,0.2,0.4,0.3,0.6,0.4c8.6,4.8,15.6-2,15.7-2.1
	c0.7-0.7,0.7-1.8,0-2.5c-0.7-0.7-1.8-0.7-2.5,0c-0.5,0.5-3.5,3.2-7.7,2.8c0.6-0.4,1.1-0.7,1.8-1.1c3.2-2.1,8.1-5.3,10.5-4.4
	c0.9,0.4,1.6,1.5,2,3.3C37.3,16.4,35.2,21.7,31.2,25.6z"/>
</svg>
