<?xml version="1.0" encoding="utf-8"?>
<!-- Generator: Adobe Illustrator 24.0.0, SVG Export Plug-In . SVG Version: 6.00 Build 0)  -->
<svg version="1.1" id="Capa_1" xmlns="http://www.w3.org/2000/svg" xmlns:xlink="http://www.w3.org/1999/xlink" x="0px" y="0px"
	 viewBox="0 0 38.8 22.9" style="enable-background:new 0 0 38.8 22.9;" xml:space="preserve">
<style type="text/css">
	.st0{fill:#FFFFFF;}
</style>
<path class="st0" d="M38.9,3.8c-0.2,0.6-0.6,1.2-1.1,1.6L21.3,22c-0.2,0.2-0.3,0.3-0.5,0.5c-0.7,0.7-1.9,0.7-2.6,0
	c-0.1-0.1-0.2-0.2-0.4-0.3l-17-17C0,4.5-0.2,3.3,0.3,2.4c0.6-0.8,1.3-1.5,2.1-2.1c0.7-0.5,1.7-0.4,2.3,0.2c0.1,0.1,0.3,0.2,0.4,0.4
	l13.9,13.9c0.1,0.1,0.2,0.3,0.3,0.4l0.4-0.4l14-14c0.7-0.9,1.9-1.1,2.8-0.4c1,0.6,1.8,1.6,2.2,2.7V3.8z"/>
</svg>
