<?xml version="1.0" encoding="utf-8"?>
<!-- Generator: Adobe Illustrator 24.0.0, SVG Export Plug-In . SVG Version: 6.00 Build 0)  -->
<svg version="1.1" id="Capa_1" xmlns="http://www.w3.org/2000/svg" xmlns:xlink="http://www.w3.org/1999/xlink" x="0px" y="0px"
	 viewBox="0 0 40 40" style="enable-background:new 0 0 40 40;" xml:space="preserve">
<path d="M39.8,7.5c-1.3,0.6-2.7,0.9-4,1.2c0.6-0.1,1.6-1.3,2-1.8c0.6-0.7,1.1-1.6,1.3-2.4c0-0.1,0.1-0.2,0-0.2c-0.1,0-0.1,0-0.2,0
	c-1.5,0.8-3.1,1.4-4.8,1.8c-0.1,0-0.2,0-0.3-0.1c-0.1-0.2-0.3-0.3-0.4-0.4C32.6,5,31.9,4.5,31,4.2c-1.1-0.5-2.3-0.7-3.6-0.6
	c-1.2,0.1-2.3,0.4-3.4,1c-1,0.5-2,1.3-2.7,2.2C20.6,7.7,20,8.8,19.7,10c-0.3,1.1-0.3,2.3-0.1,3.4c0,0.2,0,0.2-0.2,0.2
	c-6.6-1-12-3.3-16.4-8.4c-0.2-0.2-0.3-0.2-0.5,0c-1.9,2.9-1,7.6,1.4,9.8c0.3,0.3,0.7,0.6,1,0.9c-0.1,0-1.7-0.1-3.2-0.9
	c-0.2-0.1-0.3-0.1-0.3,0.2c0,0.3,0,0.6,0.1,0.9C2,19.2,4,21.9,6.8,23c0.3,0.1,0.7,0.3,1.1,0.3c-0.6,0.1-1.3,0.2-3.1,0.1
	c-0.2,0-0.3,0.1-0.2,0.3c1.4,3.7,4.3,4.8,6.5,5.5c0.3,0.1,0.6,0.1,0.9,0.1c0,0,0,0-0.1,0.1c-0.7,1.1-3.3,2-4.5,2.4
	c-2.2,0.8-4.5,1.1-6.8,0.9c-0.4-0.1-0.4,0-0.5,0c-0.1,0.1,0,0.1,0.1,0.2c0.5,0.3,0.9,0.6,1.4,0.8c1.4,0.8,3,1.4,4.5,1.8
	c8.1,2.2,17.3,0.6,23.4-5.5c4.8-4.8,6.5-11.4,6.5-17.9c0-0.3,0.3-0.4,0.5-0.5c1.2-0.9,2.3-2.1,3.2-3.3C39.9,7.9,40,7.7,40,7.5
	c0,0,0,0,0,0C40,7.4,39.9,7.4,39.8,7.5z"/>
</svg>
