<?xml version="1.0" encoding="utf-8"?>
<!-- Generator: Adobe Illustrator 24.0.0, SVG Export Plug-In . SVG Version: 6.00 Build 0)  -->
<svg version="1.1" id="Capa_1" xmlns="http://www.w3.org/2000/svg" xmlns:xlink="http://www.w3.org/1999/xlink" x="0px" y="0px"
	 viewBox="0 0 40 40" style="enable-background:new 0 0 40 40;" xml:space="preserve">
<g>
	<g>
		<path d="M30.6,7.1c-1.3,0-2.3,1-2.3,2.3c0,1.3,1,2.3,2.3,2.3c1.3,0,2.3-1,2.3-2.3C32.9,8.2,31.9,7.1,30.6,7.1z"/>
		<path d="M20.2,10.1c-5.4,0-9.9,4.4-9.9,9.9c0,5.4,4.4,9.9,9.9,9.9c5.4,0,9.9-4.4,9.9-9.9C30,14.6,25.6,10.1,20.2,10.1z M20.2,26.3
			c-3.5,0-6.3-2.8-6.3-6.3s2.8-6.3,6.3-6.3c3.5,0,6.3,2.8,6.3,6.3S23.6,26.3,20.2,26.3z"/>
		<path d="M28,40H12C5.4,40,0,34.6,0,28V12C0,5.4,5.4,0,12,0h16c6.6,0,12,5.4,12,12v16C40,34.6,34.6,40,28,40z M12,3.8
			c-4.6,0-8.3,3.7-8.3,8.3v16c0,4.6,3.7,8.3,8.3,8.3h16c4.6,0,8.3-3.7,8.3-8.3V12c0-4.6-3.7-8.3-8.3-8.3H12z"/>
	</g>
</g>
</svg>
