<?xml version="1.0" encoding="utf-8"?>
<!-- Generator: Adobe Illustrator 24.0.0, SVG Export Plug-In . SVG Version: 6.00 Build 0)  -->
<svg version="1.1" id="Capa_1" xmlns="http://www.w3.org/2000/svg" xmlns:xlink="http://www.w3.org/1999/xlink" x="0px" y="0px"
	 viewBox="0 0 40 40" style="enable-background:new 0 0 40 40;" xml:space="preserve">
<style type="text/css">
	.st0{fill:#FFFFFF;}
</style>
<g>
	<path class="st0" d="M33.6,20.7c-1-6.5-5.2-14.1-11.5-16.2C13.8,1.8,8.2,6.4,6.4,9.2c-0.2,0.3-0.3,0.6-0.3,0.9v17.2
		c0,0.5,0.2,1,0.6,1.3l8,6c0.2,0.1,2.4,1.7,6,1.7c2.4,0,5.4-0.7,8.7-3.1C33,30.8,34.4,26.3,33.6,20.7z M27.7,30.6
		C21.3,35.1,17,32.1,16.8,32l-7.4-5.6V10.6c0.4-0.5,1.1-1.2,2.1-2c1,2.6,3.5,4.5,6.4,4.5c1.5,0,2.9-0.5,4.1-1.4
		c0.7-0.5,0.9-1.6,0.3-2.3c-0.5-0.7-1.6-0.9-2.3-0.3c-0.6,0.5-1.4,0.7-2.1,0.7c-1.6,0-3-1.1-3.4-2.6c1.7-0.5,3.9-0.5,6.5,0.3
		c4.4,1.4,8.4,7.3,9.3,13.6C31,25.5,30,28.9,27.7,30.6z"/>
	<path class="st0" d="M12.8,15.4c-0.9,0-1.6,0.7-1.6,1.6s0.7,1.6,1.6,1.6c2.5,0,4.4,2,4.4,4.4c0,1.5-0.8,2.9-2.1,3.8
		c-0.8,0.5-1,1.5-0.5,2.2c0.3,0.5,0.8,0.8,1.4,0.8c0.3,0,0.6-0.1,0.9-0.3c2.2-1.4,3.6-3.9,3.6-6.5C20.5,18.8,17,15.4,12.8,15.4z"/>
</g>
<rect x="-37.3" y="-5.8" transform="matrix(-1 9.002764e-14 -9.002764e-14 -1 -64.4759 16.7855)" class="st0" width="10.1" height="28.4"/>
</svg>
