<?xml version="1.0" encoding="utf-8"?>
<!-- Generator: Adobe Illustrator 24.0.0, SVG Export Plug-In . SVG Version: 6.00 Build 0)  -->
<svg version="1.1" id="Capa_1" xmlns="http://www.w3.org/2000/svg" xmlns:xlink="http://www.w3.org/1999/xlink" x="0px" y="0px"
	 viewBox="0 0 40 40" style="enable-background:new 0 0 40 40;" xml:space="preserve">
<style type="text/css">
	.st0{fill:#FFFFFF;}
</style>
<path class="st0" d="M35.3,6.1H4.7C3.8,6.1,3,6.8,3,7.8c0,0.9,0.8,1.7,1.7,1.7h8.8c0.8,3.1,3.6,5.5,7,5.5s6.2-2.4,7-5.5h2.1
	l0.8,21.3H9.7l0.7-17.4c0-0.9-0.7-1.7-1.6-1.7c-0.9,0-1.7,0.7-1.7,1.6L6.3,32.2c0,0.4,0.2,0.8,0.4,1.2c0.3,0.3,0.8,0.5,1.2,0.5h24.1
	c0.4,0,0.8-0.2,1.2-0.5c0.3-0.3,0.5-0.8,0.4-1.2L32.7,9.3h2.5c0.9,0,1.7-0.8,1.7-1.7C37,6.7,36.2,6.1,35.3,6.1z M20.5,11.5
	c-1.5,0-2.8-0.9-3.5-2.2h6.9C23.3,10.7,22,11.5,20.5,11.5z"/>
</svg>
