<?xml version="1.0" encoding="utf-8"?>
<!-- Generator: Adobe Illustrator 24.0.0, SVG Export Plug-In . SVG Version: 6.00 Build 0)  -->
<svg version="1.1" id="Capa_1" xmlns="http://www.w3.org/2000/svg" xmlns:xlink="http://www.w3.org/1999/xlink" x="0px" y="0px"
	 viewBox="0 0 72.3 27.6" style="enable-background:new 0 0 72.3 27.6;" xml:space="preserve">
<style type="text/css">
	.st0{fill:#FFFFFF;}
</style>
<g>
	<path class="st0" d="M68.8,0.4c-1.9,0-3.5,1.6-3.5,3.5s1.6,3.5,3.5,3.5s3.5-1.6,3.5-3.5C72.3,1.9,70.7,0.4,68.8,0.4z M68.8,6.8
		c-1.6,0-3-1.3-3-3c0-1.6,1.3-3,3-3s3,1.3,3,3S70.4,6.8,68.8,6.8z"/>
	<path class="st0" d="M69.8,4.5c-0.1-0.1-0.2-0.2-0.4-0.3c0.3,0,0.6-0.2,0.7-0.3c0.2-0.2,0.2-0.4,0.2-0.7c0-0.2-0.1-0.4-0.2-0.6
		c-0.1-0.2-0.2-0.3-0.4-0.3c-0.2-0.1-0.5-0.1-0.8-0.1h-1.5v3.6h0.7V4.3h0.1c0.2,0,0.3,0,0.4,0s0.2,0.1,0.2,0.2
		C69,4.6,69.1,4.7,69.3,5l0.5,0.8h0.9l-0.4-0.7C70.1,4.8,69.9,4.6,69.8,4.5z M68.7,3.7h-0.5V2.8h0.6c0.3,0,0.5,0,0.5,0
		c0.1,0,0.2,0.1,0.3,0.1c0.1,0.1,0.1,0.2,0.1,0.3s0,0.2-0.1,0.3c0,0.1-0.1,0.1-0.2,0.2C69.3,3.7,69,3.7,68.7,3.7z"/>
	<path class="st0" d="M17.5,4.1c-1.8-1.5-4.3-2.3-7.4-2.3H3.6C1.6,1.8,0,3.4,0,5.4v18.8c0,1.7,1.4,3.1,3.1,3.1s3.1-1.4,3.1-3.1v-5.7
		h3.9c3.1,0,5.6-0.8,7.4-2.3s2.7-3.5,2.7-6S19.3,5.6,17.5,4.1z M13.1,12.9c-0.7,0.7-1.7,1.1-3,1.1h-4V6.3H10c1.3,0,2.4,0.4,3,1.1
		c0.7,0.7,1,1.6,1,2.8C14.1,11.3,13.8,12.2,13.1,12.9z"/>
	<path class="st0" d="M36.5,8.3c-1.7,0-3.1,1.4-3.1,3.1V22c-0.3,0.3-0.8,0.6-1.3,0.8c-0.5,0.2-1,0.2-1.7,0.2c-0.8,0-1.4-0.3-1.8-0.8
		s-0.6-1.6-0.6-3v-7.8c0-1.7-1.4-3-3-3c-1.7,0-3,1.4-3,3v7.8c0,2.9,0.6,5,1.7,6.4c1.2,1.4,2.7,2.1,4.8,2.1c1.2,0,2.3-0.3,3.2-0.8
		c0.9-0.6,1.7-1.3,2.3-2.4l0.2,0.8c0.3,1.2,1.4,2.1,2.7,2.1c1.5,0,2.8-1.2,2.8-2.8V11.4C39.5,9.7,38.1,8.3,36.5,8.3z"/>
	<path class="st0" d="M60.2,8.3h-9.9c0-0.2-0.1-0.4-0.1-0.7c0-2,1.6-3.7,3.7-3.7c0.5,0,1,0.1,1.5,0.3c0.1-3-1.2-3.7-2.2-4
		c-2.8-0.9-4.9-0.1-6.5,1.3c-1.6,1.3-2.4,3.3-2.4,5.8v0.9h-0.6h-0.1c-0.6,0-1.1,0.2-1.5,0.6c-0.5,0.4-0.8,1.1-0.8,1.8
		c0,1.3,1.1,2.4,2.4,2.4h0.6v11c0,1.7,1.4,3.1,3.1,3.1s3.1-1.4,3.1-3.1V13h6.2v11c0,1.7,1.4,3.1,3.1,3.1s3.1-1.4,3.1-3.1V13v-1.8
		v-0.6C62.7,9.4,61.6,8.3,60.2,8.3z"/>
	<path class="st0" d="M59.6,0.4c-1.7,0-3.1,1.4-3.1,3.1s1.4,3.1,3.1,3.1c1.7,0,3.1-1.4,3.1-3.1C62.7,1.8,61.3,0.4,59.6,0.4z"/>
</g>
</svg>
