<?xml version="1.0" encoding="utf-8"?>
<!-- Generator: Adobe Illustrator 24.0.0, SVG Export Plug-In . SVG Version: 6.00 Build 0)  -->
<svg version="1.1" id="Capa_1" xmlns="http://www.w3.org/2000/svg" xmlns:xlink="http://www.w3.org/1999/xlink" x="0px" y="0px"
	 viewBox="0 0 70 70" style="enable-background:new 0 0 70 70;" xml:space="preserve">
<style type="text/css">
	.st0{fill:#FFFFFF;}
</style>
<circle cx="35" cy="35" r="34.4"/>
<path class="st0" d="M55.2,13.3c-3.9-3.2-9.3-5-15.9-5h-14c-4.3,0-7.8,3.4-7.8,7.8v40.5c0,3.7,3,6.7,6.7,6.7s6.7-3,6.7-6.7V44.3h8.4
	c6.7,0,12.1-1.7,15.9-5S61,31.8,61,26.4S59.1,16.5,55.2,13.3z M45.7,32.3c-1.5,1.5-3.7,2.4-6.5,2.4h-8.6V18H39
	c2.8,0,5.2,0.9,6.5,2.4c1.5,1.5,2.2,3.4,2.2,6C47.9,28.8,47.2,30.7,45.7,32.3z"/>
</svg>
